<svg width="93" height="21" viewBox="0 0 93 21" fill="none" xmlns="http://www.w3.org/2000/svg">
<path d="M6.776 20.224C4.90933 20.224 3.43467 19.776 2.352 18.88C1.26933 17.9653 0.728 16.752 0.728 15.24C0.728 15.0907 0.746667 14.8293 0.784 14.456L0.868 13.812C0.886667 13.6813 0.933333 13.5787 1.008 13.504C1.10133 13.4293 1.204 13.392 1.316 13.392H5.544C5.656 13.392 5.74 13.4293 5.796 13.504C5.87067 13.5787 5.89867 13.6813 5.88 13.812L5.852 14.204C5.796 14.6147 5.91733 14.9693 6.216 15.268C6.51467 15.5667 6.944 15.716 7.504 15.716C7.98933 15.716 8.35333 15.5853 8.596 15.324C8.85733 15.0627 8.988 14.7733 8.988 14.456C8.988 14.1387 8.83867 13.868 8.54 13.644C8.26 13.42 7.728 13.1027 6.944 12.692L6.44 12.412C5.56267 11.964 4.79733 11.516 4.144 11.068C3.50933 10.6013 2.95867 10.004 2.492 9.276C2.044 8.548 1.82 7.68933 1.82 6.7C1.82 5.43067 2.13733 4.30133 2.772 3.312C3.40667 2.304 4.26533 1.52933 5.348 0.987999C6.44933 0.446666 7.672 0.176 9.016 0.176C10.192 0.176 11.228 0.390666 12.124 0.819998C13.0387 1.24933 13.748 1.856 14.252 2.64C14.756 3.424 15.008 4.33867 15.008 5.384C15.008 5.552 14.9893 5.82267 14.952 6.196L14.896 6.644C14.8773 6.77467 14.8213 6.87733 14.728 6.952C14.6533 7.02667 14.56 7.064 14.448 7.064H10.22C10.0893 7.064 9.98667 7.02667 9.912 6.952C9.856 6.87733 9.83733 6.77467 9.856 6.644L9.912 6.252C9.968 5.84133 9.856 5.47733 9.576 5.16C9.31467 4.84267 8.91333 4.684 8.372 4.684C7.94267 4.684 7.588 4.81467 7.308 5.076C7.028 5.31867 6.888 5.64533 6.888 6.056C6.888 6.42933 7.07467 6.77467 7.448 7.092C7.84 7.39067 8.55867 7.81067 9.604 8.352C9.884 8.53867 10.1547 8.69733 10.416 8.828C11.2373 9.332 11.8907 9.78 12.376 10.172C12.8613 10.5453 13.272 11.0213 13.608 11.6C13.944 12.1787 14.112 12.8693 14.112 13.672C14.112 13.8213 14.0933 14.064 14.056 14.4C13.832 16.192 13.0573 17.6107 11.732 18.656C10.4067 19.7013 8.75467 20.224 6.776 20.224ZM21.3808 20.28C19.5142 20.28 18.0395 19.7667 16.9568 18.74C15.8742 17.7133 15.3328 16.3227 15.3328 14.568C15.3328 14.12 15.3515 13.7747 15.3888 13.532L16.2008 6.868C16.3688 5.524 16.7982 4.348 17.4888 3.34C18.1795 2.332 19.0755 1.55733 20.1768 1.016C21.2782 0.456 22.5008 0.176 23.8448 0.176C25.7302 0.176 27.2142 0.689333 28.2968 1.716C29.3795 2.724 29.9208 4.096 29.9208 5.832C29.9208 6.28 29.9022 6.62533 29.8648 6.868L29.0528 13.532C28.8848 14.876 28.4555 16.0613 27.7648 17.088C27.0742 18.096 26.1782 18.88 25.0768 19.44C23.9755 20 22.7435 20.28 21.3808 20.28ZM21.9408 15.772C22.4635 15.772 22.9022 15.5853 23.2568 15.212C23.6302 14.8387 23.8542 14.344 23.9288 13.728L24.7968 6.728L24.8248 6.392C24.8248 5.86933 24.6848 5.45867 24.4048 5.16C24.1248 4.84267 23.7515 4.684 23.2848 4.684C22.7808 4.684 22.3422 4.87067 21.9688 5.244C21.6142 5.61733 21.3995 6.112 21.3248 6.728L20.4848 13.728C20.4662 13.8213 20.4568 13.952 20.4568 14.12C20.4568 14.624 20.5875 15.0253 20.8488 15.324C21.1102 15.6227 21.4742 15.772 21.9408 15.772ZM41.4326 0.819998C41.4886 0.539999 41.6472 0.399999 41.9086 0.399999H46.1646C46.2952 0.399999 46.3886 0.437332 46.4446 0.511999C46.5192 0.586666 46.5472 0.689332 46.5286 0.819998L44.2326 19.58C44.2139 19.7107 44.1579 19.8133 44.0646 19.888C43.9899 19.9627 43.8872 20 43.7566 20H39.2766C39.0526 20 38.9126 19.8973 38.8566 19.692L36.1966 10.48C36.1592 10.424 36.1219 10.396 36.0846 10.396C36.0472 10.396 36.0286 10.4333 36.0286 10.508L34.9646 19.58C34.9459 19.7107 34.8899 19.8133 34.7966 19.888C34.7219 19.9627 34.6192 20 34.4886 20H30.2326C30.1019 20 29.9992 19.9627 29.9246 19.888C29.8686 19.8133 29.8499 19.7107 29.8686 19.58L32.1926 0.819998C32.2112 0.689332 32.2579 0.586666 32.3326 0.511999C32.4072 0.437332 32.5099 0.399999 32.6406 0.399999H37.0926C37.3166 0.399999 37.4566 0.502666 37.5126 0.708L40.2006 9.892C40.2192 9.948 40.2472 9.976 40.2846 9.976C40.3219 9.976 40.3499 9.93867 40.3686 9.864L41.4326 0.819998ZM57.538 0.819998C57.594 0.539999 57.7527 0.399999 58.014 0.399999H62.27C62.4007 0.399999 62.494 0.437332 62.55 0.511999C62.6247 0.586666 62.6527 0.689332 62.634 0.819998L60.338 19.58C60.3194 19.7107 60.2634 19.8133 60.17 19.888C60.0954 19.9627 59.9927 20 59.862 20H55.382C55.158 20 55.018 19.8973 54.962 19.692L52.302 10.48C52.2647 10.424 52.2274 10.396 52.19 10.396C52.1527 10.396 52.134 10.4333 52.134 10.508L51.07 19.58C51.0514 19.7107 50.9954 19.8133 50.902 19.888C50.8274 19.9627 50.7247 20 50.594 20H46.338C46.2074 20 46.1047 19.9627 46.03 19.888C45.974 19.8133 45.9554 19.7107 45.974 19.58L48.298 0.819998C48.3167 0.689332 48.3634 0.586666 48.438 0.511999C48.5127 0.437332 48.6154 0.399999 48.746 0.399999H53.198C53.422 0.399999 53.562 0.502666 53.618 0.708L56.306 9.892C56.3247 9.948 56.3527 9.976 56.39 9.976C56.4274 9.976 56.4554 9.93867 56.474 9.864L57.538 0.819998ZM76.2475 4.488C76.2288 4.61867 76.1728 4.72133 76.0795 4.796C76.0048 4.87067 75.9115 4.908 75.7995 4.908H69.1355C69.0422 4.908 68.9955 4.95467 68.9955 5.048L68.6595 7.736C68.6222 7.82933 68.6595 7.876 68.7715 7.876H72.6355C72.7475 7.876 72.8315 7.91333 72.8875 7.988C72.9622 8.06267 72.9902 8.16533 72.9715 8.296L72.5235 11.936C72.5048 12.0667 72.4582 12.1693 72.3835 12.244C72.3088 12.3187 72.2062 12.356 72.0755 12.356H68.2115C68.1182 12.356 68.0715 12.4027 68.0715 12.496L67.7075 15.352C67.7075 15.4453 67.7542 15.492 67.8475 15.492H74.4835C74.6142 15.492 74.7075 15.5293 74.7635 15.604C74.8382 15.6787 74.8662 15.7813 74.8475 15.912L74.3995 19.58C74.3808 19.7107 74.3248 19.8133 74.2315 19.888C74.1568 19.9627 74.0542 20 73.9235 20H62.4435C62.3128 20 62.2102 19.9627 62.1355 19.888C62.0795 19.8133 62.0608 19.7107 62.0795 19.58L64.4035 0.819998C64.4222 0.689332 64.4688 0.586666 64.5435 0.511999C64.6182 0.437332 64.7208 0.399999 64.8515 0.399999H76.3315C76.4622 0.399999 76.5555 0.437332 76.6115 0.511999C76.6862 0.586666 76.7142 0.689332 76.6955 0.819998L76.2475 4.488ZM75.8888 20C75.7768 20 75.6834 19.9813 75.6088 19.944C75.5528 19.888 75.5248 19.8227 75.5248 19.748C75.5248 19.6547 75.5528 19.5707 75.6088 19.496L81.0128 10.284L81.0408 10.116L77.9048 0.903999C77.8861 0.866666 77.8768 0.810666 77.8768 0.735999C77.8768 0.642666 77.9141 0.567999 77.9888 0.511999C78.0634 0.437332 78.1568 0.399999 78.2688 0.399999H82.8048C82.9168 0.399999 83.0101 0.427999 83.0848 0.483999C83.1781 0.54 83.2341 0.624 83.2528 0.735999L84.5408 5.356C84.5968 5.468 84.6528 5.468 84.7088 5.356L87.1728 0.735999C87.2848 0.511999 87.4621 0.399999 87.7048 0.399999H92.1568C92.2688 0.399999 92.3528 0.427999 92.4088 0.483999C92.4834 0.521332 92.5208 0.577332 92.5208 0.651999C92.5208 0.726666 92.4928 0.810666 92.4368 0.903999L87.0608 10.116L87.0328 10.284L90.1408 19.496C90.1594 19.5333 90.1688 19.5893 90.1688 19.664C90.1688 19.7573 90.1314 19.8413 90.0568 19.916C89.9821 19.972 89.8794 20 89.7488 20H85.2968C85.0728 20 84.9328 19.8973 84.8768 19.692L83.5048 15.072C83.4674 14.9413 83.4208 14.9413 83.3648 15.072L80.9008 19.664C80.7888 19.888 80.6114 20 80.3688 20H75.8888Z" fill="#D53C32"/>
</svg>
